<?xml version="1.0" encoding="utf-8"?>
<!-- Generator: Adobe Illustrator 27.5.0, SVG Export Plug-In . SVG Version: 6.00 Build 0)  -->
<svg version="1.1" id="Layer_1" xmlns="http://www.w3.org/2000/svg" xmlns:xlink="http://www.w3.org/1999/xlink" x="0px" y="0px"
	 viewBox="0 0 3000 2000" style="enable-background:new 0 0 3000 2000;" xml:space="preserve">
<g>
	<rect style="fill:#FFFFFF;" width="3000" height="2000"/>
	<g>
		<path style="fill:#EBF2F9;" d="M2313.961,917.581c-337.865,70.504-139.768-709.163-600.034-378.22
			c-183.041,131.611-446.604-27.656-699.004,59.395c-231.799,79.946-174.698,342.266-152.27,428.094
			c45.305,173.372-180.334,104.226-311.123,178.715c-205.156,116.844-25.193,587.912,168.619,589.875
			c193.813,1.963,1733.771-3.909,1733.771-3.909s84.584-66.169,129.494-202.552C2675.478,1309.396,2611.468,855.5,2313.961,917.581z
			"/>
		<g>
			<g>
				<rect x="2238.38" y="1611.744" style="fill:#DCEAF9;" width="87.534" height="180.386"/>
				<polygon style="fill:#D5E7F7;" points="1036.238,1105.919 1036.238,1027.083 1060.171,1027.083 1060.171,891.527 
					1188.486,891.527 1188.486,1027.083 1308.452,1027.083 1308.452,841.276 1440.834,791.171 1440.834,949.586 1471.022,949.586 
					1471.022,738.621 1603.404,782.494 1603.404,1099.364 1770.826,1099.364 1770.826,1286.529 1833.383,1286.529 1833.383,1333.68 
					1977.072,1333.68 1977.072,1252.487 2059.57,1252.487 2059.57,1031.861 2161.479,1031.861 2161.479,1439.134 2263.389,1439.134 
					2263.389,1793.527 2161.479,1793.527 2074.129,1793.527 2059.57,1793.527 1977.072,1793.527 1930.439,1793.527 
					1855.751,1793.527 1833.383,1793.527 1770.826,1793.527 1712.063,1793.527 1603.404,1793.527 1570.126,1793.527 
					1503.921,1793.527 1471.022,1793.527 1440.834,1793.527 1371.539,1793.527 1324.366,1793.527 1308.452,1793.527 
					1188.486,1793.527 1062.313,1793.527 1060.171,1793.527 1036.238,1793.527 933.998,1793.527 933.998,1105.919 				"/>
				
					<rect x="1494.318" y="798.537" transform="matrix(-1 -1.224647e-16 1.224647e-16 -1 3077.9385 1629.7759)" style="fill:#C4D9ED;" width="89.302" height="32.703"/>
				
					<rect x="1494.318" y="859.973" transform="matrix(-1 -1.224647e-16 1.224647e-16 -1 3077.9385 1752.6494)" style="fill:#C4D9ED;" width="89.302" height="32.703"/>
				
					<rect x="1494.318" y="915.246" transform="matrix(-1 -1.224647e-16 1.224647e-16 -1 3077.9385 1863.1948)" style="fill:#C4D9ED;" width="89.302" height="32.703"/>
				<g>
					<rect x="2057.683" y="1180.5" style="fill:#C4D9ED;" width="103.797" height="50.479"/>
					<rect x="2058.674" y="1335.449" style="fill:#C4D9ED;" width="102.806" height="50.479"/>
					<rect x="2058.674" y="1411.704" style="fill:#C4D9ED;" width="102.806" height="50.48"/>
				</g>
				
					<rect x="2060.35" y="1491.483" transform="matrix(-1 -1.224647e-16 1.224647e-16 -1 4223.5039 3033.4463)" style="fill:#C4D9ED;" width="102.805" height="50.479"/>
				<rect x="2060.35" y="1569.613" style="fill:#C4D9ED;" width="102.805" height="50.48"/>
				
					<rect x="2060.35" y="1649.393" transform="matrix(-1 -1.224647e-16 1.224647e-16 -1 4223.5039 3349.2656)" style="fill:#C4D9ED;" width="102.805" height="50.48"/>
				<g>
					<rect x="1329.475" y="915.246" style="fill:#C4D9ED;" width="93.926" height="32.703"/>
					<rect x="1329.475" y="860.473" style="fill:#C4D9ED;" width="93.926" height="32.703"/>
					<rect x="1329.475" y="978.838" style="fill:#C4D9ED;" width="256.42" height="32.704"/>
					<rect x="1329.475" y="1028.012" style="fill:#C4D9ED;" width="256.42" height="32.703"/>
					<rect x="1329.475" y="1076.853" style="fill:#C4D9ED;" width="256.42" height="31.451"/>
				</g>
				<rect x="2058.674" y="1259.193" style="fill:#C4D9ED;" width="102.806" height="50.48"/>
				<g>
					<rect x="1722.748" y="1130.039" style="fill:#C4D9ED;" width="22.441" height="31.632"/>
					<rect x="1680.782" y="1130.039" style="fill:#C4D9ED;" width="22.441" height="31.632"/>
					<rect x="1639.755" y="1130.039" style="fill:#C4D9ED;" width="22.441" height="31.632"/>
					<rect x="1600.855" y="1130.039" style="fill:#C4D9ED;" width="22.441" height="31.632"/>
					<rect x="1561.209" y="1130.039" style="fill:#C4D9ED;" width="22.441" height="31.632"/>
					<rect x="1521.107" y="1130.039" style="fill:#C4D9ED;" width="22.442" height="31.632"/>
					<rect x="1479.142" y="1130.039" style="fill:#C4D9ED;" width="22.441" height="31.632"/>
					<rect x="1438.115" y="1130.039" style="fill:#C4D9ED;" width="22.442" height="31.632"/>
					<rect x="1399.215" y="1130.039" style="fill:#C4D9ED;" width="22.441" height="31.632"/>
					<rect x="1359.569" y="1130.039" style="fill:#C4D9ED;" width="22.442" height="31.632"/>
					<rect x="1318.253" y="1130.039" style="fill:#C4D9ED;" width="22.442" height="31.632"/>
					<rect x="1276.288" y="1130.039" style="fill:#C4D9ED;" width="22.441" height="31.632"/>
					<rect x="1235.261" y="1130.039" style="fill:#C4D9ED;" width="22.441" height="31.632"/>
					<rect x="1196.361" y="1130.039" style="fill:#C4D9ED;" width="22.441" height="31.632"/>
					<rect x="1156.714" y="1130.039" style="fill:#C4D9ED;" width="22.442" height="31.632"/>
					<rect x="1074.647" y="1130.039" style="fill:#C4D9ED;" width="22.441" height="31.632"/>
					<rect x="1033.62" y="1130.039" style="fill:#C4D9ED;" width="22.441" height="31.632"/>
					<rect x="994.72" y="1130.039" style="fill:#C4D9ED;" width="22.442" height="31.632"/>
					<rect x="955.074" y="1130.039" style="fill:#C4D9ED;" width="22.441" height="31.632"/>
					<rect x="1722.748" y="1185.858" style="fill:#C4D9ED;" width="22.441" height="31.632"/>
					<rect x="1680.782" y="1185.858" style="fill:#C4D9ED;" width="22.441" height="31.632"/>
					<rect x="1639.755" y="1185.858" style="fill:#C4D9ED;" width="22.441" height="31.632"/>
					<rect x="1600.855" y="1185.858" style="fill:#C4D9ED;" width="22.441" height="31.632"/>
					<rect x="1561.209" y="1185.858" style="fill:#C4D9ED;" width="22.441" height="31.632"/>
					<rect x="1521.107" y="1185.858" style="fill:#C4D9ED;" width="22.442" height="31.632"/>
					<rect x="1479.142" y="1185.858" style="fill:#C4D9ED;" width="22.441" height="31.632"/>
					<rect x="1438.115" y="1185.858" style="fill:#C4D9ED;" width="22.442" height="31.632"/>
					<rect x="1399.215" y="1185.858" style="fill:#C4D9ED;" width="22.441" height="31.632"/>
					<rect x="1359.569" y="1185.858" style="fill:#C4D9ED;" width="22.442" height="31.632"/>
					<rect x="1318.253" y="1185.858" style="fill:#C4D9ED;" width="22.442" height="31.632"/>
					<rect x="1276.288" y="1185.858" style="fill:#C4D9ED;" width="22.441" height="31.632"/>
					<rect x="1235.261" y="1185.858" style="fill:#C4D9ED;" width="22.441" height="31.632"/>
					<rect x="1196.361" y="1185.858" style="fill:#C4D9ED;" width="22.441" height="31.632"/>
					<rect x="1156.714" y="1185.858" style="fill:#C4D9ED;" width="22.442" height="31.632"/>
					<rect x="1116.613" y="1185.858" style="fill:#C4D9ED;" width="22.442" height="31.632"/>
					<rect x="1074.647" y="1185.858" style="fill:#C4D9ED;" width="22.441" height="31.632"/>
					<rect x="1033.62" y="1185.858" style="fill:#C4D9ED;" width="22.441" height="31.632"/>
					<rect x="994.72" y="1185.858" style="fill:#C4D9ED;" width="22.442" height="31.632"/>
					<rect x="955.074" y="1185.858" style="fill:#C4D9ED;" width="22.441" height="31.632"/>
					<rect x="1722.748" y="1240.821" style="fill:#C4D9ED;" width="22.441" height="31.632"/>
					<rect x="1680.782" y="1240.821" style="fill:#C4D9ED;" width="22.441" height="31.632"/>
					<rect x="1639.755" y="1240.821" style="fill:#C4D9ED;" width="22.441" height="31.632"/>
					<rect x="1600.855" y="1240.821" style="fill:#C4D9ED;" width="22.441" height="31.632"/>
					<rect x="1561.209" y="1240.821" style="fill:#C4D9ED;" width="22.441" height="31.632"/>
					<rect x="1521.107" y="1240.821" style="fill:#C4D9ED;" width="22.442" height="31.632"/>
					<rect x="1479.142" y="1240.821" style="fill:#C4D9ED;" width="22.441" height="31.632"/>
					<rect x="1438.115" y="1240.821" style="fill:#C4D9ED;" width="22.442" height="31.632"/>
					<rect x="1399.215" y="1240.821" style="fill:#C4D9ED;" width="22.441" height="31.632"/>
					<rect x="1359.569" y="1240.821" style="fill:#C4D9ED;" width="22.442" height="31.632"/>
					<rect x="1318.253" y="1240.821" style="fill:#C4D9ED;" width="22.442" height="31.632"/>
					<rect x="1276.288" y="1240.821" style="fill:#C4D9ED;" width="22.441" height="31.632"/>
					<rect x="1235.261" y="1240.821" style="fill:#C4D9ED;" width="22.441" height="31.632"/>
					<rect x="1196.361" y="1240.821" style="fill:#C4D9ED;" width="22.441" height="31.632"/>
					<rect x="1156.714" y="1240.821" style="fill:#C4D9ED;" width="22.442" height="31.632"/>
					<rect x="1116.613" y="1240.821" style="fill:#C4D9ED;" width="22.442" height="31.632"/>
					<rect x="1074.647" y="1240.821" style="fill:#C4D9ED;" width="22.441" height="31.632"/>
					<rect x="1033.62" y="1240.821" style="fill:#C4D9ED;" width="22.441" height="31.632"/>
					<rect x="994.72" y="1240.821" style="fill:#C4D9ED;" width="22.442" height="31.632"/>
					<rect x="955.074" y="1240.821" style="fill:#C4D9ED;" width="22.441" height="31.632"/>
					<rect x="1722.748" y="1299.218" style="fill:#C4D9ED;" width="22.441" height="31.632"/>
					<rect x="1680.782" y="1299.218" style="fill:#C4D9ED;" width="22.441" height="31.632"/>
					<rect x="1639.755" y="1299.218" style="fill:#C4D9ED;" width="22.441" height="31.632"/>
					<rect x="1600.855" y="1299.218" style="fill:#C4D9ED;" width="22.441" height="31.632"/>
					<rect x="1561.209" y="1299.218" style="fill:#C4D9ED;" width="22.441" height="31.632"/>
					<rect x="1521.107" y="1299.218" style="fill:#C4D9ED;" width="22.442" height="31.632"/>
					<rect x="1479.142" y="1299.218" style="fill:#C4D9ED;" width="22.441" height="31.632"/>
					<rect x="1438.115" y="1299.218" style="fill:#C4D9ED;" width="22.442" height="31.632"/>
					<rect x="1399.215" y="1299.218" style="fill:#C4D9ED;" width="22.441" height="31.632"/>
					<rect x="1359.569" y="1299.218" style="fill:#C4D9ED;" width="22.442" height="31.632"/>
					<rect x="1318.253" y="1299.218" style="fill:#C4D9ED;" width="22.442" height="31.632"/>
					<rect x="1276.288" y="1299.218" style="fill:#C4D9ED;" width="22.441" height="31.632"/>
					<rect x="1235.261" y="1299.218" style="fill:#C4D9ED;" width="22.441" height="31.632"/>
					<rect x="1196.361" y="1299.218" style="fill:#C4D9ED;" width="22.441" height="31.632"/>
					<rect x="1156.714" y="1299.218" style="fill:#C4D9ED;" width="22.442" height="31.632"/>
					<rect x="1116.613" y="1299.218" style="fill:#C4D9ED;" width="22.442" height="31.632"/>
					<rect x="1074.647" y="1299.218" style="fill:#C4D9ED;" width="22.441" height="31.632"/>
					<rect x="1033.62" y="1299.218" style="fill:#C4D9ED;" width="22.441" height="31.632"/>
					<rect x="994.72" y="1299.218" style="fill:#C4D9ED;" width="22.442" height="31.632"/>
					<rect x="955.074" y="1299.218" style="fill:#C4D9ED;" width="22.441" height="31.632"/>
					<rect x="1722.748" y="1355.037" style="fill:#C4D9ED;" width="22.441" height="31.631"/>
					<rect x="1680.782" y="1355.037" style="fill:#C4D9ED;" width="22.441" height="31.631"/>
					<rect x="1639.755" y="1355.037" style="fill:#C4D9ED;" width="22.441" height="31.631"/>
					<rect x="1600.855" y="1355.037" style="fill:#C4D9ED;" width="22.441" height="31.631"/>
					<rect x="1561.209" y="1355.037" style="fill:#C4D9ED;" width="22.441" height="31.631"/>
					<rect x="1521.107" y="1355.037" style="fill:#C4D9ED;" width="22.442" height="31.631"/>
					<rect x="1479.142" y="1355.037" style="fill:#C4D9ED;" width="22.441" height="31.631"/>
					<rect x="1438.115" y="1355.037" style="fill:#C4D9ED;" width="22.442" height="31.631"/>
					<rect x="1399.215" y="1355.037" style="fill:#C4D9ED;" width="22.441" height="31.631"/>
					<rect x="1359.569" y="1355.037" style="fill:#C4D9ED;" width="22.442" height="31.631"/>
					<rect x="1318.253" y="1355.037" style="fill:#C4D9ED;" width="22.442" height="31.631"/>
					<rect x="1276.288" y="1355.037" style="fill:#C4D9ED;" width="22.441" height="31.631"/>
					<rect x="1235.261" y="1355.037" style="fill:#C4D9ED;" width="22.441" height="31.631"/>
					<rect x="1196.361" y="1355.037" style="fill:#C4D9ED;" width="22.441" height="31.631"/>
					<rect x="1156.714" y="1355.037" style="fill:#C4D9ED;" width="22.442" height="31.631"/>
					<rect x="1116.613" y="1355.037" style="fill:#C4D9ED;" width="22.442" height="31.631"/>
					<rect x="1074.647" y="1355.037" style="fill:#C4D9ED;" width="22.441" height="31.631"/>
					<rect x="994.72" y="1355.037" style="fill:#C4D9ED;" width="22.442" height="31.631"/>
					<rect x="1033.62" y="1355.037" style="fill:#C4D9ED;" width="22.442" height="31.631"/>
					<rect x="955.074" y="1355.037" style="fill:#C4D9ED;" width="22.441" height="31.631"/>
					<rect x="1722.748" y="1410" style="fill:#C4D9ED;" width="22.441" height="31.632"/>
					<rect x="1680.782" y="1410" style="fill:#C4D9ED;" width="22.441" height="31.632"/>
					<rect x="1639.755" y="1410" style="fill:#C4D9ED;" width="22.441" height="31.632"/>
					<rect x="1600.855" y="1410" style="fill:#C4D9ED;" width="22.441" height="31.632"/>
					<rect x="1561.209" y="1410" style="fill:#C4D9ED;" width="22.441" height="31.632"/>
					<rect x="1521.107" y="1410" style="fill:#C4D9ED;" width="22.442" height="31.632"/>
					<rect x="1479.142" y="1410" style="fill:#C4D9ED;" width="22.441" height="31.632"/>
					<rect x="1438.115" y="1410" style="fill:#C4D9ED;" width="22.442" height="31.632"/>
					<rect x="1399.215" y="1410" style="fill:#C4D9ED;" width="22.441" height="31.632"/>
					<rect x="1359.569" y="1410" style="fill:#C4D9ED;" width="22.442" height="31.632"/>
					<rect x="1318.253" y="1410" style="fill:#C4D9ED;" width="22.442" height="31.632"/>
					<rect x="1276.288" y="1410" style="fill:#C4D9ED;" width="22.441" height="31.632"/>
					<rect x="1235.261" y="1410" style="fill:#C4D9ED;" width="22.441" height="31.632"/>
					<rect x="1196.361" y="1410" style="fill:#C4D9ED;" width="22.441" height="31.632"/>
					<rect x="1156.714" y="1410" style="fill:#C4D9ED;" width="22.442" height="31.632"/>
					<rect x="1116.613" y="1410" style="fill:#C4D9ED;" width="22.442" height="31.632"/>
					<rect x="1074.647" y="1410" style="fill:#C4D9ED;" width="22.441" height="31.632"/>
					<rect x="994.72" y="1410" style="fill:#C4D9ED;" width="22.442" height="31.632"/>
					<rect x="955.074" y="1410" style="fill:#C4D9ED;" width="22.441" height="31.632"/>
				</g>
				<rect x="717.023" y="1347.471" style="fill:#C4D9ED;" width="49.925" height="337.765"/>
				
					<rect x="766.948" y="1552.827" transform="matrix(-1 -1.224647e-16 1.224647e-16 -1 1587.4926 3340.2627)" style="fill:#ADC9E0;" width="53.596" height="234.608"/>
				<polygon style="fill:#C4D9ED;" points="1940.567,1252.345 1940.567,1186.549 1937.863,1186.549 1937.863,1252.345 
					1900.838,1252.345 1900.838,1333.537 1977.085,1333.537 1977.085,1252.345 				"/>
				<polygon style="fill:#C4D9ED;" points="2161.479,1082.435 2161.479,1031.954 2140.027,1031.954 2140.027,1009.985 
					2137.323,1009.985 2137.323,1031.954 2059.109,1031.954 2057.683,1031.954 2042.888,1031.954 2042.888,1009.985 
					2040.184,1009.985 2040.184,1031.954 2021.205,1031.954 2021.205,1252.558 2059.109,1252.558 2059.109,1157.507 
					2161.479,1157.507 2161.479,1107.027 2059.109,1107.027 2059.109,1082.435 				"/>
				<polygon style="fill:#D5E7F7;" points="1053.229,1396.633 1053.229,1681.363 766.948,1681.363 766.948,1347.471 				"/>
				
					<rect x="696.086" y="1551.944" transform="matrix(-1 -1.224647e-16 1.224647e-16 -1 1749.3154 3344.0742)" style="fill:#D5E7F7;" width="357.144" height="240.186"/>
				
					<rect x="696.086" y="1409.796" transform="matrix(-1 -1.224647e-16 1.224647e-16 -1 1749.3154 2897.6572)" style="fill:#C4D9ED;" width="357.144" height="78.065"/>
				<g>
					<rect x="1010.57" y="1617.07" style="fill:#C4D9ED;" width="18.342" height="25.854"/>
					<rect x="976.269" y="1617.07" style="fill:#C4D9ED;" width="18.342" height="25.854"/>
					<rect x="942.737" y="1617.07" style="fill:#C4D9ED;" width="18.342" height="25.854"/>
					<rect x="910.943" y="1617.07" style="fill:#C4D9ED;" width="18.343" height="25.854"/>
					<rect x="878.539" y="1617.07" style="fill:#C4D9ED;" width="18.342" height="25.854"/>
					<rect x="845.765" y="1617.07" style="fill:#C4D9ED;" width="18.342" height="25.854"/>
					<rect x="811.464" y="1617.07" style="fill:#C4D9ED;" width="18.343" height="25.854"/>
					<rect x="777.932" y="1617.07" style="fill:#C4D9ED;" width="18.342" height="25.854"/>
					<rect x="746.138" y="1617.07" style="fill:#C4D9ED;" width="18.342" height="25.854"/>
					<rect x="713.734" y="1617.07" style="fill:#C4D9ED;" width="18.343" height="25.854"/>
					<rect x="1010.57" y="1662.693" style="fill:#C4D9ED;" width="18.342" height="25.853"/>
					<rect x="976.269" y="1662.693" style="fill:#C4D9ED;" width="18.342" height="25.853"/>
					<rect x="942.737" y="1662.693" style="fill:#C4D9ED;" width="18.342" height="25.853"/>
					<rect x="910.943" y="1662.693" style="fill:#C4D9ED;" width="18.343" height="25.853"/>
					<rect x="878.539" y="1662.693" style="fill:#C4D9ED;" width="18.342" height="25.853"/>
					<rect x="845.765" y="1662.693" style="fill:#C4D9ED;" width="18.342" height="25.853"/>
					<rect x="811.464" y="1662.693" style="fill:#C4D9ED;" width="18.343" height="25.853"/>
					<rect x="777.932" y="1662.693" style="fill:#C4D9ED;" width="18.342" height="25.853"/>
					<rect x="746.138" y="1662.693" style="fill:#C4D9ED;" width="18.342" height="25.853"/>
					<rect x="713.734" y="1662.693" style="fill:#C4D9ED;" width="18.343" height="25.853"/>
					<rect x="1010.57" y="1525.141" style="fill:#C4D9ED;" width="18.342" height="25.854"/>
					<rect x="976.269" y="1525.141" style="fill:#C4D9ED;" width="18.342" height="25.854"/>
					<rect x="942.737" y="1525.141" style="fill:#C4D9ED;" width="18.342" height="25.854"/>
					<rect x="910.943" y="1525.141" style="fill:#C4D9ED;" width="18.343" height="25.854"/>
					<rect x="878.539" y="1525.141" style="fill:#C4D9ED;" width="18.342" height="25.854"/>
					<rect x="845.765" y="1525.141" style="fill:#C4D9ED;" width="18.342" height="25.854"/>
					<rect x="811.464" y="1525.141" style="fill:#C4D9ED;" width="18.343" height="25.854"/>
					<rect x="777.932" y="1525.141" style="fill:#C4D9ED;" width="18.342" height="25.854"/>
					<rect x="1010.57" y="1570.763" style="fill:#C4D9ED;" width="18.342" height="25.853"/>
					<rect x="976.269" y="1570.763" style="fill:#C4D9ED;" width="18.342" height="25.853"/>
					<rect x="942.737" y="1570.763" style="fill:#C4D9ED;" width="18.342" height="25.853"/>
					<rect x="910.943" y="1570.763" style="fill:#C4D9ED;" width="18.343" height="25.853"/>
					<rect x="878.539" y="1570.763" style="fill:#C4D9ED;" width="18.342" height="25.853"/>
					<rect x="845.765" y="1570.763" style="fill:#C4D9ED;" width="18.342" height="25.853"/>
					<rect x="811.464" y="1570.763" style="fill:#C4D9ED;" width="18.343" height="25.853"/>
					<rect x="777.932" y="1570.763" style="fill:#C4D9ED;" width="18.342" height="25.853"/>
					<rect x="746.138" y="1570.763" style="fill:#C4D9ED;" width="18.342" height="25.853"/>
					<rect x="713.734" y="1570.763" style="fill:#C4D9ED;" width="18.343" height="25.853"/>
					<rect x="1010.57" y="1707.615" style="fill:#C4D9ED;" width="18.342" height="25.854"/>
					<rect x="976.269" y="1707.615" style="fill:#C4D9ED;" width="18.342" height="25.854"/>
					<rect x="942.737" y="1707.615" style="fill:#C4D9ED;" width="18.342" height="25.854"/>
					<rect x="910.943" y="1707.615" style="fill:#C4D9ED;" width="18.343" height="25.854"/>
					<rect x="878.539" y="1707.615" style="fill:#C4D9ED;" width="18.342" height="25.854"/>
					<rect x="845.765" y="1707.615" style="fill:#C4D9ED;" width="18.342" height="25.854"/>
					<rect x="811.464" y="1707.615" style="fill:#C4D9ED;" width="18.343" height="25.854"/>
					<rect x="777.932" y="1707.615" style="fill:#C4D9ED;" width="18.342" height="25.854"/>
					<rect x="746.138" y="1707.615" style="fill:#C4D9ED;" width="18.342" height="25.854"/>
					<rect x="713.734" y="1707.615" style="fill:#C4D9ED;" width="18.343" height="25.854"/>
					<rect x="1010.57" y="1747.615" style="fill:#C4D9ED;" width="18.342" height="25.854"/>
					<rect x="976.269" y="1747.615" style="fill:#C4D9ED;" width="18.342" height="25.854"/>
					<rect x="942.737" y="1747.615" style="fill:#C4D9ED;" width="18.342" height="25.854"/>
					<rect x="910.943" y="1747.615" style="fill:#C4D9ED;" width="18.343" height="25.854"/>
					<rect x="878.539" y="1747.615" style="fill:#C4D9ED;" width="18.342" height="25.854"/>
					<rect x="845.765" y="1747.615" style="fill:#C4D9ED;" width="18.342" height="25.854"/>
					<rect x="811.464" y="1747.615" style="fill:#C4D9ED;" width="18.343" height="25.854"/>
					<rect x="777.932" y="1747.615" style="fill:#C4D9ED;" width="18.342" height="25.854"/>
					<rect x="746.138" y="1747.615" style="fill:#C4D9ED;" width="18.342" height="25.854"/>
					<rect x="713.734" y="1747.615" style="fill:#C4D9ED;" width="18.343" height="25.854"/>
				</g>
				<rect x="786.148" y="1293.854" style="fill:#D5E7F7;" width="5.29" height="67.696"/>
				<g>
					<rect x="1010.57" y="1431.729" style="fill:#D5E7F7;" width="15.413" height="26.666"/>
					<rect x="857.548" y="1431.729" style="fill:#D5E7F7;" width="15.413" height="26.666"/>
					<rect x="735.821" y="1431.729" style="fill:#D5E7F7;" width="15.413" height="26.666"/>
				</g>
			</g>
			<rect x="1479.362" y="1491.483" style="fill:#C4D9ED;" width="513.971" height="300.647"/>
			<polygon style="fill:#C4D9ED;" points="1816.271,1505.213 1923.522,1505.213 1923.522,1411.704 1816.271,1452.766 			"/>
			<polygon style="fill:#C4D9ED;" points="1287.671,1792.13 1042.229,1792.13 1042.229,1525.141 1287.671,1610.107 			"/>
			<rect x="1048.712" y="1618.947" style="fill:#D5E7F7;" width="232.477" height="8.25"/>
			<rect x="1048.712" y="1645.466" style="fill:#D5E7F7;" width="232.477" height="8.25"/>
			<rect x="1048.712" y="1671.984" style="fill:#D5E7F7;" width="232.477" height="8.25"/>
			<rect x="1048.712" y="1698.502" style="fill:#D5E7F7;" width="232.477" height="8.25"/>
			<rect x="1048.712" y="1725.021" style="fill:#D5E7F7;" width="232.477" height="8.25"/>
			<rect x="1048.712" y="1751.539" style="fill:#D5E7F7;" width="232.477" height="8.25"/>
			<rect x="1923.522" y="1411.704" style="fill:#C4D9ED;" width="20.626" height="79.779"/>
			<g>
				<rect x="1064.181" y="902.657" style="fill:#C4D9ED;" width="14.223" height="120.658"/>
				<rect x="1092.467" y="902.657" style="fill:#C4D9ED;" width="14.223" height="120.658"/>
				<rect x="1120.37" y="902.657" style="fill:#C4D9ED;" width="14.223" height="120.658"/>
				<rect x="1149.25" y="902.657" style="fill:#C4D9ED;" width="14.223" height="120.658"/>
			</g>
		</g>
	</g>
	<g>
		<polygon style="fill:#F1A34F;" points="687.982,1595.281 649.883,1591.652 625.572,1610.884 616.305,1646.661 627.748,1671.117 
			602.712,1660.595 544.463,1725.851 533.85,1781.364 553.443,1795.242 722.434,1795.242 746.926,1715.237 746.109,1649.928 		"/>
		<g>
			<path style="opacity:0.5;fill:#E88F46;" d="M602.712,1660.595c0,0,22.134,29.028,26.851,30.116
				c4.717,1.089,19.231-1.088,18.869-3.265c-0.363-2.178-20.683-16.329-20.683-16.329L602.712,1660.595z"/>
			<path style="opacity:0.5;fill:#E88F46;" d="M544.463,1725.851l30.814,23.034c2.602,1.945,3.855,5.213,3.213,8.396
				c-1.371,6.797-3.892,17.837-5.895,18.338C569.691,1776.345,544.463,1725.851,544.463,1725.851z"/>
			<path style="opacity:0.5;fill:#E88F46;" d="M741.141,1721.191c0,0-44.087,22.859-45.719,26.669
				c-1.633,3.811,13.607,34.835,19.594,30.48C721.002,1773.986,741.141,1721.191,741.141,1721.191z"/>
		</g>
		<g>
			<path style="fill:#F1A34F;" d="M635.369,1599.272c0,0-31.568-8.347-34.471-6.895c-2.903,1.451-17.417,21.408-15.966,25.036
				C586.383,1621.043,635.369,1599.272,635.369,1599.272z"/>
			<path style="fill:#E59545;" d="M637.545,1579.679l-2.177,19.594l13.426-11.975
				C648.794,1587.298,643.714,1577.501,637.545,1579.679z"/>
			<path style="fill:#E59545;" d="M639.632,1600.724c0-0.272-0.454-4.354-1.18-4.173c-0.725,0.182-5.625,3.175-5.625,3.719
				s-0.907,4.626,0.999,4.445C635.731,1604.533,639.632,1600.724,639.632,1600.724z"/>
			<path style="opacity:0.5;fill:#E88F46;" d="M637.908,1602.877c0,0-4.716,17.055-3.991,18.507
				c0.726,1.451,10.523,12.519,11.793,11.974C646.98,1632.813,637.908,1602.877,637.908,1602.877z"/>
			<path style="opacity:0.5;fill:#E88F46;" d="M639.36,1601.994c0,0,5.443,17.053,6.894,16.873
				c1.452-0.183,9.072-13.608,7.983-14.696C653.148,1603.082,639.36,1601.994,639.36,1601.994z"/>
			<path style="opacity:0.5;fill:#E88F46;" d="M640.147,1601.073l4.639-2.379c0.216-0.111,0.469-0.121,0.693-0.028l1.934,0.8
				c0.421,0.175,0.332,0.796-0.122,0.844L640.147,1601.073z"/>
			<path style="opacity:0.5;fill:#E88F46;" d="M636.403,1603.533l-2.647,2.653c-0.389,0.39-0.346,1.033,0.092,1.367l0.895,0.685
				c0.298,0.229,0.734,0.063,0.806-0.306L636.403,1603.533z"/>
			<path style="fill:#E59545;" d="M635.822,1599.272c-0.408-0.137-20.411-2.177-22.043-1.361c-1.633,0.816-9.117,7.756-6.124,8.165
				C610.649,1606.484,635.822,1599.272,635.822,1599.272z"/>
		</g>
		<path style="opacity:0.5;fill:#E88F46;" d="M553.443,1795.242c0,0,70.314-10.552,77.571-8.012c7.257,2.54,32.294,7.62,32.294,7.62
			s31.205-7.983,34.471-6.169c3.265,1.814,7.62,6.532,7.62,6.532L553.443,1795.242z"/>
	</g>
	<g>
		<path style="fill:#1C2948;" d="M2545.166,1752.666h-53c-8.178,0-14.832-6.654-14.832-14.832v-53.5H2560v53.5
			C2560,1746.012,2553.346,1752.666,2545.166,1752.666z M2487.334,1694.334v43.5c0,2.664,2.168,4.832,4.832,4.832h53
			c2.666,0,4.834-2.168,4.834-4.832v-43.5H2487.334z"/>
		<path style="fill:#A8D29F;" d="M1151.713,1102.083l919.748-4.652c12.823-0.064,23.253,10.312,23.253,23.135v433.839
			l-1201.011,67.7v-67.7L1008,1246.251L1151.713,1102.083z"/>
		<rect x="956" y="1554.404" style="fill:#1C2948;" width="1549.669" height="128"/>
		<g>
			
				<ellipse transform="matrix(0.7071 -0.7071 0.7071 0.7071 -507.5291 2139.5237)" style="fill:#2D3A62;" cx="2328.869" cy="1682.404" rx="109.302" ry="109.301"/>
			<path style="fill:#98BDF4;" d="M2328.869,1614.684c-37.4,0-67.72,30.319-67.72,67.721c0,37.4,30.319,67.72,67.72,67.72
				s67.721-30.319,67.721-67.72C2396.59,1645.003,2366.27,1614.684,2328.869,1614.684z M2338.146,1622.105
				c14.748,2.25,27.746,9.792,37.029,20.614l-23.47,14.495c-3.826-3.471-8.449-6.072-13.56-7.52V1622.105z M2319.593,1622.105v27.59
				c-5.109,1.447-9.734,4.049-13.56,7.52l-23.471-14.495C2291.846,1631.897,2304.845,1624.355,2319.593,1622.105z
				 M2272.626,1706.055c-3.062-7.272-4.757-15.264-4.757-23.65c0-8.498,1.742-16.588,4.881-23.938l23.46,14.488
				c-0.866,3.001-1.341,6.17-1.341,9.45c0,3.168,0.442,6.23,1.253,9.14L2272.626,1706.055z M2319.593,1742.703
				c-14.856-2.267-27.938-9.902-37.234-20.852l23.442-14.479c3.871,3.578,8.576,6.263,13.792,7.739V1742.703z M2313.494,1682.404
				c0-8.492,6.884-15.375,15.375-15.375s15.375,6.883,15.375,15.375c0,8.49-6.884,15.375-15.375,15.375
				S2313.494,1690.895,2313.494,1682.404z M2338.146,1742.703v-27.591c5.216-1.477,9.921-4.161,13.793-7.739l23.442,14.479
				C2366.084,1732.801,2353.002,1740.437,2338.146,1742.703z M2361.616,1691.544c0.811-2.909,1.253-5.972,1.253-9.14
				c0-3.28-0.475-6.449-1.341-9.45l23.46-14.488c3.139,7.351,4.881,15.44,4.881,23.938c0,8.387-1.695,16.378-4.757,23.65
				L2361.616,1691.544z"/>
		</g>
		<g>
			<g>
				<g>
					
						<ellipse transform="matrix(0.7071 -0.7071 0.7071 0.7071 -779.9197 1481.9143)" style="fill:#2D3A62;" cx="1398.869" cy="1682.404" rx="109.302" ry="109.301"/>
				</g>
			</g>
			<path style="fill:#98BDF4;" d="M1398.869,1614.684c-37.401,0-67.72,30.319-67.72,67.72c0,37.401,30.319,67.721,67.72,67.721
				s67.72-30.319,67.72-67.721C1466.589,1645.003,1436.27,1614.684,1398.869,1614.684z M1408.146,1622.104
				c14.748,2.25,27.747,9.793,37.03,20.615l-23.47,14.495c-3.826-3.471-8.45-6.072-13.56-7.52V1622.104z M1389.593,1622.104v27.591
				c-5.11,1.447-9.734,4.049-13.56,7.52l-23.47-14.495C1361.846,1631.897,1374.845,1624.354,1389.593,1622.104z M1342.626,1706.055
				c-3.063-7.273-4.757-15.264-4.757-23.651c0-8.498,1.742-16.588,4.881-23.938l23.459,14.489c-0.867,3.001-1.341,6.169-1.341,9.449
				c0,3.168,0.442,6.231,1.253,9.141L1342.626,1706.055z M1389.593,1742.702c-14.856-2.267-27.938-9.901-37.235-20.851
				l23.442-14.479c3.872,3.578,8.577,6.263,13.792,7.739V1742.702z M1383.494,1682.403c0-8.491,6.884-15.375,15.375-15.375
				s15.375,6.884,15.375,15.375s-6.884,15.375-15.375,15.375S1383.494,1690.895,1383.494,1682.403z M1408.146,1742.702v-27.59
				c5.215-1.477,9.921-4.161,13.792-7.739l23.442,14.479C1436.084,1732.801,1423.001,1740.436,1408.146,1742.702z
				 M1431.616,1691.544c0.811-2.909,1.253-5.973,1.253-9.141c0-3.28-0.474-6.448-1.341-9.449l23.459-14.489
				c3.139,7.351,4.881,15.44,4.881,23.938c0,8.388-1.695,16.378-4.757,23.651L1431.616,1691.544z"/>
		</g>
		<g>
			<g>
				<g>
					
						<ellipse transform="matrix(0.2099 -0.9777 0.9777 0.2099 -350.5988 2930.6863)" style="fill:#2D3A62;" cx="1637.928" cy="1682.26" rx="109.301" ry="109.301"/>
				</g>
			</g>
			<path style="fill:#98BDF4;" d="M1637.928,1614.54c-37.4,0-67.72,30.319-67.72,67.72c0,37.401,30.319,67.721,67.72,67.721
				c37.401,0,67.721-30.319,67.721-67.721C1705.648,1644.859,1675.329,1614.54,1637.928,1614.54z M1647.205,1621.961
				c14.748,2.25,27.746,9.793,37.029,20.615l-23.47,14.495c-3.826-3.471-8.45-6.073-13.56-7.52V1621.961z M1628.651,1621.961v27.591
				c-5.109,1.446-9.733,4.049-13.56,7.52l-23.47-14.495C1600.905,1631.754,1613.904,1624.211,1628.651,1621.961z M1581.686,1705.912
				c-3.063-7.274-4.758-15.265-4.758-23.652c0-8.498,1.742-16.588,4.882-23.938l23.46,14.489c-0.867,3.001-1.342,6.169-1.342,9.449
				c0,3.168,0.443,6.231,1.253,9.141L1581.686,1705.912z M1628.651,1742.559c-14.855-2.267-27.938-9.9-37.234-20.852l23.442-14.478
				c3.871,3.579,8.577,6.263,13.792,7.739V1742.559z M1622.553,1682.26c0-8.491,6.885-15.375,15.375-15.375
				c8.491,0,15.375,6.884,15.375,15.375s-6.884,15.375-15.375,15.375C1629.438,1697.635,1622.553,1690.751,1622.553,1682.26z
				 M1647.205,1742.559v-27.59c5.215-1.477,9.92-4.16,13.792-7.739l23.442,14.478
				C1675.143,1732.658,1662.061,1740.292,1647.205,1742.559z M1670.676,1691.4c0.811-2.909,1.252-5.973,1.252-9.141
				c0-3.28-0.474-6.448-1.34-9.449l23.459-14.489c3.139,7.351,4.882,15.44,4.882,23.938c0,8.388-1.695,16.378-4.758,23.652
				L1670.676,1691.4z"/>
		</g>
		<path style="fill:#A8D29F;" d="M2531.697,1102h-279.36c-17.905,0-32.646,14.081-33.464,31.968L2200.336,1539H2197
			c-32.032,0-58,25.968-58,58v138.313c0,8.18,6.632,14.812,14.813,14.812h40.246c8.181,0,14.813-6.632,14.812-14.813l-0.001-52.908
			c0-67.68,56.029-122.272,124.233-119.927c61.761,2.125,112.206,51.508,115.583,113.213c0.412,7.523,0.125,14.905-0.794,22.09
			h187.441v-355.112l-66.878-213.657C2563.424,1112.939,2548.537,1102,2531.697,1102z"/>
		<path style="fill:#82B378;" d="M2416.344,1573.103c32.018,25.656,52.525,65.081,52.525,109.301c0,1.371-0.025,2.735-0.064,4.097
			h99.445v-113.397H2416.344z"/>
		<path style="fill:#98BDF4;" d="M2570.87,1136.728h-74.212c-4.557,0-7.617,4.676-5.793,8.852l78.867,180.604
			c2.036,4.663,6.307,7.968,11.33,8.77l54.604,8.714L2570.87,1136.728z"/>
		<path style="fill:#98BDF4;" d="M2519.853,1333H2347.83c-6.169,0-11.17-5.001-11.17-11.17v-168.66c0-6.169,5.001-11.17,11.17-11.17
			h108.443c4.649,0,8.813,2.88,10.452,7.229l63.579,168.661C2533.059,1325.195,2527.659,1333,2519.853,1333z"/>
		<path style="fill:#82B378;" d="M2229.36,1333.625h81.118c2.824,0,5.114-2.29,5.114-5.114v-181.396c0-2.824-2.29-5.114-5.114-5.114
			h-72.599c-2.731,0-4.98,2.146-5.108,4.875l-8.52,181.396C2224.114,1331.187,2226.441,1333.625,2229.36,1333.625z"/>
		<g>
			<defs>
				<path id="SVGID_1_" d="M2519.853,1333H2347.83c-6.169,0-11.17-5.001-11.17-11.17v-168.66c0-6.169,5.001-11.17,11.17-11.17
					h108.443c4.649,0,8.813,2.88,10.452,7.229l63.579,168.661C2533.059,1325.195,2527.659,1333,2519.853,1333z"/>
			</defs>
			<clipPath id="SVGID_00000147906172110674287230000003925020587184803002_">
				<use xlink:href="#SVGID_1_"  style="overflow:visible;"/>
			</clipPath>
			<g style="clip-path:url(#SVGID_00000147906172110674287230000003925020587184803002_);">
				<polygon style="fill:#D5E7F7;" points="2223.572,1526.168 2156.909,1526.168 2450.461,1008.934 2517.123,1008.934 				"/>
				<polygon style="fill:#D5E7F7;" points="2264.935,1535.612 2247.357,1535.612 2540.908,1018.379 2558.485,1018.379 				"/>
				<polygon style="fill:#D5E7F7;" points="2382.998,1516.723 2349.667,1516.723 2643.218,999.489 2676.55,999.489 				"/>
			</g>
		</g>
		<path style="fill:#163560;" d="M2519.853,1338H2347.83c-8.916,0-16.17-7.254-16.17-16.17v-168.66c0-8.916,7.254-16.17,16.17-16.17
			h108.443c6.689,0,12.771,4.206,15.131,10.467l63.578,168.66c1.873,4.966,1.188,10.537-1.832,14.902S2525.16,1338,2519.853,1338z
			 M2347.83,1147c-3.402,0-6.17,2.768-6.17,6.17v168.66c0,3.402,2.768,6.17,6.17,6.17h172.022c2.055,0,3.904-0.97,5.074-2.66
			c1.169-1.69,1.424-3.763,0.698-5.686l-63.578-168.66c-0.9-2.389-3.221-3.994-5.773-3.994H2347.83z"/>
		<g>
			<defs>
				<path id="SVGID_00000088816609518904876390000008711544059432168375_" d="M2570.87,1136.728h-74.212
					c-4.557,0-7.617,4.676-5.793,8.852l78.867,180.604c2.036,4.663,6.307,7.968,11.33,8.77l54.604,8.714L2570.87,1136.728z"/>
			</defs>
			<clipPath id="SVGID_00000173877639584011888550000007325510287820629156_">
				<use xlink:href="#SVGID_00000088816609518904876390000008711544059432168375_"  style="overflow:visible;"/>
			</clipPath>
			<g style="clip-path:url(#SVGID_00000173877639584011888550000007325510287820629156_);">
				<polygon style="fill:#D5E7F7;" points="2380.157,1488.61 2313.494,1488.61 2607.045,971.377 2673.708,971.377 				"/>
				<polygon style="fill:#D5E7F7;" points="2421.52,1498.055 2403.941,1498.055 2697.493,980.821 2715.07,980.821 				"/>
				<polygon style="fill:#D5E7F7;" points="2539.583,1479.165 2506.252,1479.165 2799.803,961.932 2833.134,961.932 				"/>
			</g>
		</g>
		<path style="fill:#163560;" d="M2635.667,1348.666c-0.262,0-0.525-0.02-0.788-0.063l-54.604-8.713
			c-6.739-1.075-12.394-5.451-15.124-11.705l-78.867-180.605c-1.534-3.513-1.197-7.523,0.902-10.73s5.64-5.122,9.473-5.122h74.213
			c2.186,0,4.117,1.42,4.771,3.506l64.797,206.938c0.517,1.652,0.143,3.455-0.989,4.764
			C2638.491,1348.045,2637.106,1348.666,2635.667,1348.666z M2496.658,1141.728c-0.59,0-0.927,0.325-1.105,0.598
			s-0.342,0.712-0.105,1.253l78.867,180.605c1.36,3.115,4.178,5.296,7.537,5.832l46.631,7.441l-61.285-195.729H2496.658z"/>
		<rect x="2616" y="1382" style="fill:#B64C41;" width="19.333" height="144"/>
		<path style="fill:#A8D29F;" d="M2640.333,1724.333h-51c-5.522,0-10-4.477-10-10V1580c0-5.522,4.478-10,10-10h51
			c5.523,0,10,4.478,10,10v134.333C2650.333,1719.856,2645.856,1724.333,2640.333,1724.333z"/>
		<path style="fill:#82B378;" d="M2579.333,1714.333c0,5.523,4.478,10,10,10h51c5.523,0,10-4.477,10-10H2579.333z"/>
		<path style="fill:#82B378;" d="M2540.667,1562.667L2540.667,1562.667c-2.21,0-4-1.791-4-4v-217.334c0-2.209,1.79-4,4-4l0,0
			c2.209,0,4,1.791,4,4v217.334C2544.667,1560.876,2542.876,1562.667,2540.667,1562.667z"/>
		<path style="fill:#82B378;" d="M2336.66,1469L2336.66,1469c-2.209,0-4-1.791-4-4v-117.333c0-2.21,1.791-4,4-4l0,0
			c2.209,0,4,1.79,4,4V1465C2340.66,1467.209,2338.869,1469,2336.66,1469z"/>
		<rect x="2336.66" y="1486" style="fill:#2D3A62;" width="53.209" height="20.667"/>
		<path style="fill:#A8D29F;" d="M2496.333,1102H2258v-8.667c0-5.522,4.477-10,10-10h184.521c10.735,0,21.221,3.239,30.086,9.294
			L2496.333,1102z"/>
		<polygon style="fill:#82B378;" points="2482.607,1092.627 2258,1093.333 2258,1102 2496.333,1102 		"/>
		<path style="fill:#A8D29F;" d="M1180.216,1651.018H847.108c-7.314,0-13.243-5.929-13.243-13.242v-15.785
			c0-3.152,1.125-6.201,3.171-8.599l449.896-526.972c1.672-1.959,4.118-3.087,6.693-3.087h32.959c5.729,0,9.932,5.388,8.536,10.945
			l-136.089,542.063C1196.866,1644.969,1189.11,1651.018,1180.216,1651.018z"/>
		<path style="fill:#A8D29F;" d="M817.667,1759H1154c8.284,0,15-6.716,15-15v-58.807c0-8.284-6.716-15-15-15H817.667
			c-8.284,0-15,6.716-15,15V1744C802.667,1752.284,809.382,1759,817.667,1759z"/>
		<path style="fill:#82B378;" d="M802.667,1744c0,8.284,6.716,15,15,15H1154c8.284,0,15-6.716,15-15H802.667z"/>
		<g>
			<g>
				<path style="fill:#A8D29F;" d="M1103.804,1610.887c-8.678-5.814-20.425-3.493-26.24,5.185
					c-4.333,6.468-4.145,14.64-0.176,20.791l-32.204,48.063c-7.198-1.331-14.828,1.603-19.161,8.07
					c-5.814,8.678-3.493,20.426,5.185,26.239c8.678,5.814,20.425,3.493,26.24-5.185c4.333-6.468,4.145-14.64,0.176-20.791
					l32.203-48.063c7.198,1.331,14.828-1.603,19.162-8.07C1114.803,1628.448,1112.481,1616.7,1103.804,1610.887z"/>
				<path style="fill:#82B378;" d="M1089.61,1608.044c4.748-0.938,9.854-0.064,14.193,2.843c8.678,5.813,10.999,17.562,5.185,26.239
					c-2.906,4.338-7.295,7.086-12.042,8.024c-2.331,0.46-4.749,0.484-7.119,0.046l-32.203,48.063
					c3.969,6.151,4.158,14.323-0.176,20.791c-2.907,4.339-7.298,7.089-12.046,8.027c-4.748,0.938-9.854,0.064-14.193-2.843
					c-8.678-5.813-10.999-17.562-5.185-26.239c2.906-4.338,7.295-7.086,12.042-8.024c2.331-0.46,4.749-0.484,7.119-0.046
					l32.204-48.063c-3.969-6.151-4.158-14.323,0.176-20.791C1080.471,1611.732,1084.862,1608.982,1089.61,1608.044L1089.61,1608.044
					z M1089.152,1605.725c-5.576,1.102-10.388,4.309-13.552,9.03c-4.437,6.622-4.782,15.106-1.006,22.03l-30.543,45.585
					c-2.145-0.234-4.305-0.141-6.443,0.282c-5.574,1.101-10.386,4.307-13.548,9.026c-6.531,9.747-3.914,22.989,5.833,29.521
					c4.721,3.163,10.392,4.299,15.968,3.197s10.388-4.309,13.552-9.03c4.437-6.622,4.782-15.106,1.006-22.03l30.543-45.585
					c2.145,0.234,4.305,0.141,6.443-0.281c5.574-1.102,10.386-4.308,13.548-9.027c6.53-9.747,3.914-22.989-5.833-29.521
					C1100.398,1605.759,1094.728,1604.623,1089.152,1605.725L1089.152,1605.725z"/>
			</g>
			<path style="fill:#82B378;" d="M1100.641,1631.533c-2.725,4.067-8.232,5.155-12.3,2.431c-4.067-2.726-5.156-8.232-2.43-12.3
				c2.726-4.068,8.232-5.156,12.3-2.431S1103.367,1627.466,1100.641,1631.533z"/>
			<path style="fill:#82B378;" d="M1049.101,1708.457c-2.726,4.068-8.232,5.156-12.3,2.431c-4.068-2.726-5.156-8.232-2.431-12.3
				c2.726-4.067,8.232-5.156,12.3-2.431C1050.738,1698.883,1051.826,1704.39,1049.101,1708.457z"/>
			<path style="fill:#82B378;" d="M1057.624,1693.259l32.203-48.063c-2.459-0.455-4.868-1.405-7.078-2.886l-30.486,45.5
				C1054.473,1689.291,1056.268,1691.157,1057.624,1693.259z"/>
		</g>
		<g>
			<g>
				<path style="fill:#A8D29F;" d="M989.125,1610.887c-8.677-5.814-20.425-3.493-26.239,5.185
					c-4.333,6.468-4.145,14.64-0.176,20.791l-32.203,48.063c-7.198-1.331-14.828,1.603-19.162,8.07
					c-5.814,8.678-3.493,20.426,5.185,26.239c8.677,5.814,20.425,3.493,26.239-5.185c4.333-6.468,4.145-14.64,0.176-20.791
					l32.203-48.063c7.198,1.331,14.828-1.603,19.162-8.07C1000.124,1628.448,997.803,1616.7,989.125,1610.887z"/>
				<path style="fill:#82B378;" d="M974.932,1608.044c4.749-0.938,9.855-0.064,14.194,2.843c8.677,5.813,10.999,17.562,5.185,26.239
					c-2.907,4.338-7.295,7.086-12.043,8.024c-2.331,0.46-4.749,0.484-7.119,0.046l-32.203,48.063
					c3.969,6.151,4.157,14.323-0.176,20.791c-2.907,4.339-7.297,7.089-12.046,8.027c-4.749,0.938-9.855,0.064-14.193-2.843
					c-8.678-5.813-10.999-17.562-5.185-26.239c2.907-4.338,7.295-7.086,12.043-8.024c2.331-0.46,4.748-0.484,7.119-0.046
					l32.203-48.063c-3.969-6.151-4.157-14.323,0.176-20.791C965.792,1611.732,970.183,1608.982,974.932,1608.044L974.932,1608.044z
					 M974.474,1605.725c-5.576,1.102-10.389,4.309-13.552,9.03c-4.437,6.622-4.782,15.106-1.006,22.03l-30.543,45.585
					c-2.145-0.234-4.305-0.141-6.443,0.282c-5.574,1.101-10.386,4.307-13.548,9.026c-6.53,9.747-3.914,22.989,5.833,29.521
					c4.722,3.163,10.393,4.299,15.968,3.197c5.575-1.102,10.388-4.309,13.552-9.03c4.436-6.622,4.782-15.106,1.006-22.03
					l30.543-45.585c2.145,0.234,4.306,0.141,6.443-0.281c5.574-1.102,10.386-4.308,13.548-9.027
					c6.53-9.747,3.914-22.989-5.833-29.521C985.72,1605.759,980.049,1604.623,974.474,1605.725L974.474,1605.725z"/>
			</g>
			<path style="fill:#82B378;" d="M985.963,1631.533c-2.726,4.067-8.232,5.155-12.3,2.431c-4.068-2.726-5.156-8.232-2.431-12.3
				c2.726-4.068,8.232-5.156,12.3-2.431C987.6,1621.959,988.688,1627.466,985.963,1631.533z"/>
			<path style="fill:#82B378;" d="M934.422,1708.457c-2.725,4.068-8.232,5.156-12.3,2.431c-4.067-2.726-5.155-8.232-2.43-12.3
				c2.726-4.067,8.232-5.156,12.3-2.431C936.06,1698.883,937.147,1704.39,934.422,1708.457z"/>
			<path style="fill:#82B378;" d="M942.945,1693.259l32.203-48.063c-2.459-0.455-4.869-1.405-7.078-2.886l-30.486,45.5
				C939.794,1689.291,941.589,1691.157,942.945,1693.259z"/>
		</g>
		<path style="fill:#82B378;" d="M1292.725,1112.406h26.652c2.372,0,4.096,2.252,3.478,4.542l-107.781,398.98
			c-2.536,9.386-11.04,15.912-20.762,15.934l-238.865,0.507c-6.945,0.015-10.734-8.1-6.265-13.415l340.762-405.234
			C1290.628,1112.889,1291.648,1112.406,1292.725,1112.406z"/>
		<polygon style="fill:#82B378;" points="1219.603,1554.404 1333.393,1101.164 1342,1101.164 1230,1554.404 		"/>
		<path style="fill:#82B378;" d="M1886.333,1093.333h-8.666c-4.234,0-7.667,3.433-7.667,7.667v453.404h24V1101
			C1894,1096.766,1890.567,1093.333,1886.333,1093.333z"/>
		<path style="fill:#82B378;" d="M1686.333,1093.333h-8.666c-4.234,0-7.667,3.433-7.667,7.667v453.404h24V1101
			C1694,1096.766,1690.567,1093.333,1686.333,1093.333z"/>
		<path style="fill:#82B378;" d="M1476.333,1093.333h-8.667c-4.234,0-7.667,3.433-7.667,7.667v453.404h24V1101
			C1484,1096.766,1480.567,1093.333,1476.333,1093.333z"/>
		<path style="fill:#A8D29F;" d="M1876.333,1093.333h-8.666c-4.234,0-7.667,3.433-7.667,7.667v453.404h24V1101
			C1884,1096.766,1880.567,1093.333,1876.333,1093.333z"/>
		<path style="fill:#A8D29F;" d="M1676.333,1093.333h-8.666c-4.234,0-7.667,3.433-7.667,7.667v453.404h24V1101
			C1684,1096.766,1680.567,1093.333,1676.333,1093.333z"/>
		<path style="fill:#A8D29F;" d="M1466.333,1093.333h-8.667c-4.234,0-7.667,3.433-7.667,7.667v453.404h24V1101
			C1474,1096.766,1470.567,1093.333,1466.333,1093.333z"/>
		<path style="fill:#A8D29F;" d="M1759.667,1518h-477.334c-16.016,0-29,12.983-29,29v174.124c0,14.848,11.161,27.081,25.549,28.788
			l-0.013-67.509c0-66.273,53.726-120,120-120c42.742,0,80.255,22.353,101.51,56.001h35.948
			c21.239-33.729,58.798-56.145,101.601-56.145c66.274,0,120,53.727,120,120l-0.017,67.864h1.756c16.016,0,29-12.983,29-29V1547
			C1788.667,1530.983,1775.683,1518,1759.667,1518z"/>
		<g>
			<path style="fill:#82B378;" d="M1757.92,1714.333l-0.009,35.791h1.756c16.016,0,29-12.983,29-29v-6.791H1757.92z"/>
			<path style="fill:#82B378;" d="M1253.333,1714.333v6.791c0,14.848,11.161,27.081,25.549,28.788l-0.007-35.579H1253.333z"/>
		</g>
		<path style="fill:#82B378;" d="M1788.667,1547v7.404h20V1547c0-16.017-12.984-29-29-29h-20
			C1775.683,1518,1788.667,1530.983,1788.667,1547z"/>
		<path style="fill:#82B378;" d="M1174,1218.7V1101c0-4.234-3.433-7.667-7.667-7.667h-8.667c-4.234,0-7.667,3.433-7.667,7.667
			v145.812L1174,1218.7z"/>
		<path style="fill:#A8D29F;" d="M1164,1230.413V1101c0-4.234-3.433-7.667-7.667-7.667h-8.667c-4.234,0-7.667,3.433-7.667,7.667
			v157.524L1164,1230.413z"/>
		<path style="fill:#B64C41;" d="M2380,1083.333h-59v-32.583c0-10.355,8.395-18.75,18.75-18.75h21.5
			c10.355,0,18.75,8.395,18.75,18.75V1083.333z"/>
		<path style="fill:#D6716B;" d="M2336.66,1064.848c0-10.355,8.395-18.75,18.75-18.75h21.5c0.861,0,1.703,0.078,2.533,0.19
			c-2.005-8.197-9.379-14.288-18.193-14.288h-21.5c-10.355,0-18.75,8.395-18.75,18.75v32.583h15.66V1064.848z"/>
		<g>
			<polygon style="fill:#F1A34F;" points="889.188,1573.103 871.439,1573.103 883.833,1558.83 901.531,1558.81 			"/>
			<polygon style="fill:#B64C41;" points="901.531,1558.81 883.833,1558.83 896.132,1544.669 913.777,1544.629 			"/>
			<polygon style="fill:#F1A34F;" points="913.777,1544.629 896.132,1544.669 908.335,1530.617 925.929,1530.558 			"/>
			<polygon style="fill:#B64C41;" points="925.929,1530.558 908.335,1530.617 920.444,1516.674 937.987,1516.596 			"/>
			<polygon style="fill:#F1A34F;" points="937.987,1516.596 920.444,1516.674 932.459,1502.839 949.951,1502.741 			"/>
			<polygon style="fill:#B64C41;" points="949.951,1502.741 932.459,1502.839 944.383,1489.109 961.824,1488.993 			"/>
			<polygon style="fill:#F1A34F;" points="961.824,1488.993 944.383,1489.109 956.215,1475.484 973.606,1475.351 			"/>
			<polygon style="fill:#B64C41;" points="973.606,1475.351 956.215,1475.484 967.958,1461.963 985.298,1461.812 			"/>
			<polygon style="fill:#F1A34F;" points="985.298,1461.812 967.958,1461.963 979.611,1448.545 996.902,1448.375 			"/>
			<polygon style="fill:#B64C41;" points="996.902,1448.375 979.611,1448.545 991.177,1435.228 1008.417,1435.04 			"/>
			<polygon style="fill:#F1A34F;" points="1008.417,1435.04 991.177,1435.228 1002.655,1422.011 1019.847,1421.806 			"/>
			<polygon style="fill:#B64C41;" points="1019.847,1421.806 1002.655,1422.011 1014.047,1408.893 1031.19,1408.671 			"/>
			<polygon style="fill:#F1A34F;" points="1031.19,1408.671 1014.047,1408.893 1025.355,1395.872 1042.448,1395.635 			"/>
			<polygon style="fill:#B64C41;" points="1042.448,1395.635 1025.355,1395.872 1036.578,1382.949 1053.623,1382.694 			"/>
			<polygon style="fill:#F1A34F;" points="1053.623,1382.694 1036.578,1382.949 1047.718,1370.121 1064.715,1369.852 			"/>
			<polygon style="fill:#B64C41;" points="1064.715,1369.852 1047.718,1370.121 1058.776,1357.389 1075.725,1357.103 			"/>
		</g>
		<path style="fill:#82B378;" d="M2066.667,1454.404H1884v-12h182.667c3.313,0,6,2.686,6,6l0,0
			C2072.667,1451.718,2069.98,1454.404,2066.667,1454.404z"/>
		<path style="fill:#82B378;" d="M1866.667,1454.404H1684v-12h182.667c3.313,0,6,2.686,6,6l0,0
			C1872.667,1451.718,1869.98,1454.404,1866.667,1454.404z"/>
		<path style="fill:#82B378;" d="M1656.667,1454.404H1474v-12h182.667c3.313,0,6,2.686,6,6l0,0
			C1662.667,1451.718,1659.98,1454.404,1656.667,1454.404z"/>
		<path style="fill:#82B378;" d="M1456.667,1454.404H1249l3-12h204.667c3.314,0,6,2.686,6,6l0,0
			C1462.667,1451.718,1459.98,1454.404,1456.667,1454.404z"/>
		<path style="fill:#82B378;" d="M2066.667,1354.404H1884v-12h182.667c3.313,0,6,2.686,6,6l0,0
			C2072.667,1351.718,2069.98,1354.404,2066.667,1354.404z"/>
		<path style="fill:#82B378;" d="M1866.667,1354.404H1684v-12h182.667c3.313,0,6,2.686,6,6l0,0
			C1872.667,1351.718,1869.98,1354.404,1866.667,1354.404z"/>
		<path style="fill:#82B378;" d="M1656.667,1354.404H1474v-12h182.667c3.313,0,6,2.686,6,6l0,0
			C1662.667,1351.718,1659.98,1354.404,1656.667,1354.404z"/>
		<path style="fill:#82B378;" d="M1456.667,1354.404H1272l3-12h181.667c3.314,0,6,2.686,6,6l0,0
			C1462.667,1351.718,1459.98,1354.404,1456.667,1354.404z"/>
		<path style="fill:#82B378;" d="M2066.667,1254.404H1884v-12h182.667c3.313,0,6,2.686,6,6l0,0
			C2072.667,1251.718,2069.98,1254.404,2066.667,1254.404z"/>
		<path style="fill:#82B378;" d="M1866.667,1254.404H1684v-12h182.667c3.313,0,6,2.686,6,6l0,0
			C1872.667,1251.718,1869.98,1254.404,1866.667,1254.404z"/>
		<path style="fill:#82B378;" d="M1656.667,1254.404H1474v-12h182.667c3.313,0,6,2.686,6,6l0,0
			C1662.667,1251.718,1659.98,1254.404,1656.667,1254.404z"/>
		<path style="fill:#82B378;" d="M1456.667,1254.404H1296l3-12h157.667c3.314,0,6,2.686,6,6l0,0
			C1462.667,1251.718,1459.98,1254.404,1456.667,1254.404z"/>
		<path style="fill:#82B378;" d="M2066.667,1154.404H1884v-12h182.667c3.313,0,6,2.686,6,6l0,0
			C2072.667,1151.718,2069.98,1154.404,2066.667,1154.404z"/>
		<path style="fill:#82B378;" d="M1866.667,1154.404H1684v-12h182.667c3.313,0,6,2.686,6,6l0,0
			C1872.667,1151.718,1869.98,1154.404,1866.667,1154.404z"/>
		<path style="fill:#82B378;" d="M1656.667,1154.404H1474v-12h182.667c3.313,0,6,2.686,6,6l0,0
			C1662.667,1151.718,1659.98,1154.404,1656.667,1154.404z"/>
		<path style="fill:#82B378;" d="M1456.667,1154.404H1322.5l3-12h131.167c3.314,0,6,2.686,6,6l0,0
			C1462.667,1151.718,1459.98,1154.404,1456.667,1154.404z"/>
		<path style="fill:#F1A34F;" d="M2574.333,1414.667H2566c-3.866,0-7-3.134-7-7V1389c0-3.866,3.134-7,7-7h8.333c3.866,0,7,3.134,7,7
			v18.667C2581.333,1411.533,2578.199,1414.667,2574.333,1414.667z"/>
		<path style="fill:#A8D29F;" d="M2094.5,1714.333h-246c-11.322,0-20.5-9.178-20.5-20.5V1621c0-11.322,9.178-20.5,20.5-20.5h246
			c11.322,0,20.5,9.178,20.5,20.5v72.833C2115,1705.155,2105.822,1714.333,2094.5,1714.333z"/>
		<path style="fill:#82B378;" d="M1828,1693.75v0.083c0,11.322,9.178,20.5,20.5,20.5h246c11.322,0,20.5-9.178,20.5-20.5v-0.083H1828
			z"/>
		<path style="fill:#82B378;" d="M1901.833,1693.75h-12.666v-93.417c0-1.656,1.343-3,3-3h6.666c1.657,0,3,1.344,3,3V1693.75z"/>
		<path style="fill:#82B378;" d="M2061.833,1693.75h-12.666v-93.417c0-1.656,1.343-3,3-3h6.666c1.657,0,3,1.344,3,3V1693.75z"/>
		<path style="fill:#A8D29F;" d="M1897.833,1693.75h-12.666v-93.417c0-1.656,1.343-3,3-3h6.666c1.657,0,3,1.344,3,3V1693.75z"/>
		<path style="fill:#A8D29F;" d="M2057.833,1693.75h-12.666v-93.417c0-1.656,1.343-3,3-3h6.666c1.657,0,3,1.344,3,3V1693.75z"/>
		<g>
			<path style="fill:#82B378;" d="M1863.291,1640.461h-6.583c-7.363,0-13.333,6.418-13.333,14.334s5.97,14.333,13.333,14.333h6.583
				c7.364,0,13.334-6.417,13.334-14.333S1870.655,1640.461,1863.291,1640.461z"/>
			<path style="fill:#A8D29F;" d="M1865.041,1654.836c0,7.065-4.402,12.792-9.833,12.792s-9.833-5.727-9.833-12.792
				c0-7.064,4.402-12.791,9.833-12.791S1865.041,1647.771,1865.041,1654.836z"/>
		</g>
		<path style="fill:#82B378;" d="M2194.188,1750.124h-40.375c-8.181,0-14.813-6.632-14.813-14.812l0,0h70l0,0
			C2209,1743.492,2202.368,1750.124,2194.188,1750.124z"/>
	</g>
	<g>
		<path style="fill:#D68D5D;" d="M596.361,1302.186c0,0,26.331,76.973,38.427,91.58c12.097,14.607,54.543,36.189,54.913,38.118
			c0.879,4.584-2.629,11.74-6.604,11.762c-14.11,0.077-42.71-10.646-55.957-23.341c-14.018-13.435-36.203-90.196-36.203-90.196
			L596.361,1302.186z"/>
		<g>
			<g>
				<path style="fill:#233862;" d="M836.667,1729h-7.829c-10.494,0-19,14.037-19,31.353s8.506,31.353,19,31.353h7.829
					c10.494,0,19-14.037,19-31.353S847.16,1729,836.667,1729z"/>
			</g>
			<g>
				<path style="fill:#AA3E39;" d="M814.51,1772.13H709.328c-10.933,0-19.961-8.543-20.563-19.46l-18.927-313.368H854
					l-18.927,313.368C834.471,1763.587,825.443,1772.13,814.51,1772.13z"/>
				<path style="fill:#B84C42;" d="M844.51,1772.13H739.328c-10.933,0-20.563-1.643-20.563-19.46l-18.927-313.368H884
					l-18.927,313.368C865.073,1772.13,855.443,1772.13,844.51,1772.13z"/>
				<g>
					<path style="fill:#233862;" d="M846.379,1415.758H673.121c-6.694,0-12.121,5.427-12.121,12.121v11.371h197.5v-11.371
						C858.5,1421.185,853.073,1415.758,846.379,1415.758z"/>
					<path style="fill:#2B478B;" d="M882.379,1415.758H709.121c-6.694,0-12.121,5.427-12.121,12.121v11.371h197.5v-11.371
						C894.5,1421.185,889.073,1415.758,882.379,1415.758z"/>
				</g>
			</g>
			<g>
				<path style="fill:#2B478B;" d="M696.667,1729h-7.829c-10.494,0-19,14.037-19,31.353s8.506,31.353,19,31.353h7.829
					c10.494,0,19-14.037,19-31.353S707.16,1729,696.667,1729z"/>
				<path style="fill:#233862;" d="M702.776,1760.353c0,12.702-6.24,23-13.938,23c-7.698,0-13.939-10.298-13.939-23
					s6.24-23,13.939-23C696.536,1737.353,702.776,1747.65,702.776,1760.353z"/>
			</g>
		</g>
		<path style="fill:#233862;" d="M559.993,1765.896c0,0-3.097,25.181,1.841,26.337c1.914,0.449,58.831-0.12,58.831-0.12
			s0-6.805-9.324-8.316c-9.324-1.512-25.704-7.056-28.476-19.404C580.093,1752.045,559.993,1765.896,559.993,1765.896z"/>
		<path style="fill:#2B478B;" d="M616.327,1634.694c0,21.478-24.811,134.86-24.811,134.86s-25.027,4.495-35.841-6.253
			c0,0,2.351-105.175,6.112-127.545c0.762-4.528-0.446-11.214-2.797-19.339c-9.267-32.01-36.241-86.314-30.054-118.508
			c7.758-40.355,62.581,3.117,62.581,3.117s2.398,10.833,5.699,26.415C604.54,1561.995,616.327,1619.893,616.327,1634.694z"/>
		<path style="fill:#233862;" d="M597.215,1527.442l-38.226,88.976c-9.267-32.01-36.241-86.314-30.054-118.508
			c7.758-40.355,62.581,3.117,62.581,3.117S593.914,1511.86,597.215,1527.442z"/>
		<path style="fill:#233862;" d="M420.883,1743.346c0,0-10.332,9.576-8.316,16.38c2.016,6.804,11.34,11.34,12.6,19.656
			c1.26,8.315,6.3,12.852,10.836,12.852c4.536,0,21.625,0,21.625,0s3.339-5.852-4.725-7.616
			c-8.064-1.763-11.104-11.535-10.601-20.607s-0.756-21.168-0.756-21.168l-17.136-4.032L420.883,1743.346z"/>
		<path style="fill:#2B478B;" d="M592.505,1476.877c0,0-65.025,125.397-101.314,190.413c-36.288,65.017-47.628,83.161-47.628,83.161
			s-20.79-8.316-22.68-13.986c0,0,18.658-107.563,48.811-145.553c13.727-17.294,13.102-66.076,17.177-93.347
			c2.684-17.961,14.903-49.683,14.903-49.683L592.505,1476.877z"/>
		<path style="fill:#E49963;" d="M618.213,1291.577c6.756,8.115,9.215,16.377,9.215,16.377
			c-22.564-1.557-50.577-32.292-50.577-32.292s16.367-4.523,27.905-22.611c0.583-0.912,1.152-1.856,1.702-2.835
			c1.758-3.107,3.361-6.573,4.729-10.433l6.691,11.73l11.124,19.508c0,0-2.328,5.778-7.697,15.262
			C620.371,1287.938,619.341,1289.706,618.213,1291.577z"/>
		<path style="fill:#80BDCC;" d="M634.307,1340.467c-0.696,10.965-4.001,27.576-8.491,46.002
			c-1.744,7.138-3.663,14.547-5.675,22.009c-3.268,12.107-6.671,24.284-10.184,35.748l-0.132,0.408
			c-0.254,1.166-0.649,2.403-1.006,3.536c-3.047,10.123-5.967,19.493-8.51,27.449c-4.871,15.215-4.904,23.689-8.792,25.408
			c-7.813,3.453-38.572-0.254-57.002-8.242c-15.572-6.63-39.3-26.624-39.179-36.688c0.141-11.665,15.795-46.787,26.172-87.796
			c12.803-50.093,41.201-90.095,64.884-98.342c1.768-0.574,3.658,3.141,10.522,9.732c6.343,6.084,14.331,9.883,21.892,10.691
			l4.509,7.523C629.422,1308.673,635.44,1322.586,634.307,1340.467z"/>
		<path style="fill:#5F9AA8;" d="M625.815,1386.469c-1.744,7.138-3.663,14.547-5.675,22.009
			c-3.268,12.107-6.671,24.284-10.184,35.748l-0.132,0.408c-0.254,1.166-0.649,2.403-1.006,3.536
			c-3.047,10.123-5.967,19.493-8.51,27.449C551.053,1413.053,566,1329,566,1329L625.815,1386.469z"/>
		<path style="fill:#D68D5D;" d="M629.003,1271.021c0,0-2.328,5.778-7.697,15.262c-13.823-10.175-16.184-26.514-16.55-33.232
			c-0.108-1.899-0.052-3.032-0.052-3.032s0.644,0.07,1.754,0.197c2.331,0.264,6.723,0.762,11.42,1.298L629.003,1271.021z"/>
		<path style="fill:#E49963;" d="M635.328,1272.958c0,0-35.319-7.516-30.3-29.438c5.019-21.923,3.84-37.658,26.604-33.786
			c22.763,3.871,25.214,13.236,25.318,20.962C657.054,1238.42,644.644,1274.349,635.328,1272.958z"/>
		<path style="fill:#2B478B;" d="M604.685,1245.033c0,0,11.561-27.466,43.52-20.049c21.89,5.079,16.15-17.134,14.861-20.802
			c0,0-17.004-3.194-34.59-6.001C591.565,1192.291,602.713,1239.5,604.685,1245.033z"/>
		<path style="fill:#F1A34F;" d="M623.315,1297.906l-4.509-7.523c-7.561-0.809-15.549-4.607-21.892-10.691
			c-6.865-6.592-8.754-10.307-10.522-9.732c-23.683,8.247-52.082,48.25-64.884,98.342c-10.377,41.009-26.032,76.131-26.172,87.796
			c-0.121,10.064,23.607,30.059,39.179,36.688c18.431,7.988,49.19,11.695,57.002,8.242c3.888-1.719,3.921-10.193,8.792-25.408
			c2.544-7.955,5.463-17.326,8.51-27.449c0.357-1.133,0.752-2.37,1.006-3.536l0.132-0.408c3.512-11.464,6.916-23.641,10.184-35.748
			c2.013-7.462,3.931-14.871,5.675-22.009c4.49-18.426,7.795-35.037,8.491-46.002
			C635.44,1322.586,629.422,1308.673,623.315,1297.906z M624.677,1351.447c-8.717,28.103-33.966,45.244-56.396,38.286
			c-22.43-6.957-33.546-35.379-24.83-63.481c8.717-28.102,33.966-45.243,56.396-38.286
			C622.277,1294.924,633.394,1323.345,624.677,1351.447z"/>
		<path style="fill:#E58638;" d="M609.825,1444.634l0.132-0.408c2.505-8.179,4.955-16.722,7.34-25.342l-22.226-31.429
			c-8.571,3.996-17.9,5.036-26.79,2.278c-1.076-0.334-2.118-0.731-3.141-1.162c3.344,28.026,12.567,62.396,36.589,82.577
			c2.188-6.917,4.594-14.688,7.09-22.979C609.176,1447.037,609.571,1445.8,609.825,1444.634z"/>
		<path style="fill:#E49963;" d="M681.444,1444.465c0,0,14.421,4.327,23.795,1.909c9.375-2.418,25.132,2.805,27.563,6.286
			c2.432,3.48,1.435,4.784-3.193,5.766c-4.628,0.981-21.136,7.252-31.642,2.817c-10.506-4.435-24.412-5.14-24.412-5.14
			L681.444,1444.465z"/>
		<path style="fill:#B84C42;" d="M607.642,1452.062c0.39-1.284,0.782-2.581,1.177-3.892c0.357-1.133,0.752-2.37,1.006-3.536
			l0.132-0.408c1.025-3.347,2.04-6.759,3.046-10.208c-38.121-19.262-72.62-42.117-93.786-57.063
			c-1.581,5.749-3.24,11.351-4.917,16.755C532.435,1406.264,569.86,1431.393,607.642,1452.062z"/>
		<path style="fill:#AA3E39;" d="M577.315,1434.572c9.831,5.932,20.065,11.875,30.327,17.489c0.39-1.284,0.782-2.581,1.177-3.892
			c0.357-1.133,0.752-2.37,1.006-3.536l0.132-0.408c1.025-3.347,2.04-6.759,3.046-10.208c-15.269-7.715-29.955-16.007-43.438-24.137
			C571.454,1417.35,574.003,1426.014,577.315,1434.572z"/>
		<path style="fill:#E49963;" d="M560.6,1312.834c0,0,11.695,116.993,38.381,128.502c13.166,5.68,72.791,15.209,90.227,17.082
			c0,0,3.467,2.438,2.992-11.746c0,0-61.043-26.463-69.344-39.181c-12.354-18.926,11.148-74.844-4.587-92.785
			C602.535,1296.765,575.164,1288.227,560.6,1312.834z"/>
		<path style="fill:#80BDCC;" d="M623.823,1367.398c0,0-44.701,0.239-55.729,12.142l-12.02-70.718l31.31-19.168l31.81,20.574
			C619.194,1310.229,631.233,1324.367,623.823,1367.398z"/>
	</g>
	<g>
		<polygon style="fill:#699FF0;" points="942.333,1578.594 917.017,1572.061 877,1593.293 846.784,1647.192 859.034,1682.31 
			834.534,1717.426 833.718,1777.042 823.838,1791.705 984.8,1791.742 1012.566,1743.559 1015.832,1667.609 997.05,1589.211 
			963.566,1573.693 		"/>
		<g>
			<path style="fill:#4A75CB;" d="M940.643,1573.652l-6.022-19.269c-0.464-1.482-1.871-2.465-3.422-2.385
				c-5.405,0.276-17.235,1.003-17.235,2.054C913.963,1555.413,940.643,1573.652,940.643,1573.652z"/>
			<path style="fill:#4A75CB;" d="M943.91,1574.47l0.869-13.262c0.114-1.728,1.783-2.916,3.453-2.459l5.441,1.491
				c4.028,1.104,4.636,6.563,0.95,8.525L943.91,1574.47z"/>
			<path style="fill:#4A75CB;" d="M935.724,1574.772c0.433-0.789,0.862-1.563,1.216-2.199c0.52-0.932,1.498-1.515,2.565-1.528
				l7.656-0.095c0.95-0.013,1.85,0.43,2.419,1.19l1.191,1.588c0.486,0.647,0.686,1.465,0.558,2.264l-0.189,1.161
				c-0.243,1.495-1.569,2.57-3.082,2.498l-9.868-0.47C935.991,1579.077,934.663,1576.703,935.724,1574.772z"/>
			<path style="fill:#4A75CB;" d="M877,1593.293l15.985,42.025c0.915,2.404,4.277,2.513,5.344,0.172l6.507-14.275
				c1.098-2.408,0.42-5.255-1.643-6.911L877,1593.293z"/>
			<path style="fill:#4A75CB;" d="M860.338,1683.998c0,0,19.601,23.866,15.789,27.678c-3.811,3.812-39.138,5.75-39.138,5.75
				L860.338,1683.998z"/>
			<path style="fill:#4A75CB;" d="M1012.566,1743.559c0,0-72.832,24.196-68.838,32.908s41.072,15.275,41.072,15.275
				L1012.566,1743.559z"/>
			<path style="fill:#4A75CB;" d="M926.009,1662.374l77.745,8.937c2.545,0.293,2.971,3.813,0.568,4.703l-44.476,16.472
				c-2.931,1.086-6.223,0.447-8.534-1.655l-27.056-24.595C922.655,1664.78,923.86,1662.127,926.009,1662.374z"/>
			<path style="fill:#4A75CB;" d="M934.381,1582.364l-18.287,4.674c-3.062,0.782-4.463,4.329-2.763,6.994l2.165,3.392
				c1.27,1.99,4.101,2.189,5.638,0.396L934.381,1582.364z"/>
			<path style="fill:#4A75CB;" d="M943.91,1581.82l18.284-3.213c1.19-0.208,2.414,0.072,3.393,0.779l7.29,5.266
				c1.365,0.985,0.423,3.137-1.228,2.802L943.91,1581.82z"/>
		</g>
	</g>
	<g>
		<g>
			<path style="fill:#AA3E39;" d="M1823.698,1748.269c0,0,9.531,8.833,7.671,15.109c-1.859,6.277-10.46,10.462-11.623,18.133
				c-1.162,7.671-5.812,11.856-9.996,11.856c-4.184,0-19.948,0-19.948,0s-3.081-5.399,4.357-7.026
				c7.44-1.627,10.244-10.643,9.78-19.011c-0.465-8.368,0.697-19.526,0.697-19.526l15.808-3.72L1823.698,1748.269z"/>
			<path style="fill:#AA3E39;" d="M1706.77,1771.116c0,0,1.711,20.104-2.474,22.195h-53.599c0,0,0.049-6.389,8.65-7.783
				c8.601-1.395,23.711-6.509,26.268-17.9C1688.172,1756.238,1706.77,1771.116,1706.77,1771.116z"/>
			<path style="fill:#EE9849;" d="M1661.559,1487.138c0,0,2.825,35.238,6.145,77.599c4.512,57.541,9.938,128.221,10.475,141.61
				c0.928,23.251,4.652,60.443,4.652,60.443s8.828,8.836,26.5,5.112c0,0,15.747-53.093,20.245-109.268
				c0.07-0.921,0.141-1.848,0.209-2.775c4.185-57.186,10.692-177.604,10.692-177.604L1661.559,1487.138z"/>
			<path style="fill:#E58638;" d="M1661.559,1487.138c0,0,2.825,35.238,6.145,77.599l61.872,97.898
				c0.07-0.921,0.141-1.848,0.209-2.775c4.185-57.186,10.692-177.604,10.692-177.604L1661.559,1487.138z"/>
			<path style="fill:#EE9849;" d="M1674.458,1491.322c0,0,50.909,127.622,84.384,187.598c33.474,59.975,43.935,76.712,43.935,76.712
				s19.179-7.671,20.922-12.901c0,0-12.801-115.785-35.218-144.01c-12.667-15.95-27.547-63.813-28.244-80.55
				c-0.698-16.737-4.533-49.862-4.533-49.862L1674.458,1491.322z"/>
		</g>
		<path style="fill:#FFB27D;" d="M1741.439,1294.646c0,0-34.446,16.879-54.305,10.616c0,0,4.89-6.263,13.442-10.921
			c-0.687-4.049-1.222-7.562-1.526-10.541c-0.841-6.874-0.841-10.769-0.841-10.769l13.289-10.616l12.604-10.158
			C1723.108,1280.822,1741.439,1294.646,1741.439,1294.646z"/>
		<path style="fill:#2B478B;" d="M1759.592,1474.845c0.076,2.139-4.431,4.583-6.416,5.499c-14.741,6.568-28.488,11.15-44.069,12.679
			c-18.407,1.91-40.174-2.291-47.659-2.139c-0.764,0-1.451-0.305-2.062-0.84c-0.535-0.382-0.917-22.913-0.535-51.248
			c0-1.146,0-2.292,0.076-3.438v-0.38c0.152-11.075,0.535-22.685,1.069-34.294c1.07-25.511,3.055-50.104,6.416-63.698
			c4.048-16.039,13.214-26.655,21.538-34.37l6.874-6.11c6.873,1.375,14.129,0.994,21.386-2.596
			c7.942-3.896,16.661-8.423,18.035-7.354c10.388,7.714,17.25,25.378,20.993,47.527c2.139,12.756,3.208,27.037,3.132,42.008
			c0,5.499-0.153,11.151-0.459,16.727c-1.833,30.245,0,56.518,1.069,71.717C1759.285,1468.964,1759.516,1472.401,1759.592,1474.845z
			"/>
		<path style="fill:#233862;" d="M1758.98,1464.533c-166.883-0.229-30.779-124.417-30.779-124.417l27.037-6.034
			c2.139,12.756,3.208,27.037,3.132,42.008c0,5.499-0.153,11.151-0.459,16.727
			C1756.078,1423.062,1757.911,1449.334,1758.98,1464.533z"/>
		<path style="fill:#699FF0;" d="M1684.743,1382.812l-0.535,12.679l-0.534,11.761l-1.681,40.174l-23.677,41.016
			c0,0-17.72,18.789-63.316,18.789c-56.825,0-65.227-31.315-65.227-31.315l0.688-50.714l20.852-29.863l-10.389-29.863l25.663-45.903
			l34.064-18.023l21.538,5.575l18.102-4.201l28.488,13.213L1684.743,1382.812z"/>
		<path style="fill:#4A75CB;" d="M1620.762,1302.892l-5.122-16.395c-0.394-1.262-1.592-2.098-2.911-2.03
			c-4.601,0.236-14.665,0.854-14.665,1.747C1598.063,1287.372,1620.762,1302.892,1620.762,1302.892z"/>
		<path style="fill:#4A75CB;" d="M1623.543,1303.586l0.739-11.282c0.096-1.471,1.517-2.482,2.938-2.093l4.63,1.269
			c3.427,0.938,3.944,5.583,0.808,7.253L1623.543,1303.586z"/>
		<path style="fill:#4A75CB;" d="M1616.577,1303.844c0.368-0.671,0.733-1.33,1.036-1.871c0.442-0.793,1.273-1.289,2.181-1.3
			l6.515-0.082c0.81-0.011,1.574,0.366,2.059,1.015l1.014,1.35c0.413,0.552,0.585,1.247,0.474,1.927l-0.159,0.987
			c-0.207,1.272-1.336,2.188-2.623,2.126l-8.396-0.399C1616.805,1307.506,1615.675,1305.486,1616.577,1303.844z"/>
		<path style="fill:#4A75CB;" d="M1566.613,1319.602l13.601,35.756c0.778,2.047,3.639,2.139,4.547,0.146l5.537-12.146
			c0.935-2.05,0.358-4.472-1.398-5.88L1566.613,1319.602z"/>
		<path style="fill:#4A75CB;" d="M1551.313,1395.337c0,0,15.655,21.746,12.412,24.989c-3.242,3.242-33.301,4.893-33.301,4.893
			L1551.313,1395.337z"/>
		<path style="fill:#4A75CB;" d="M1681.957,1447.453c0,0-61.967,20.588-58.569,28c3.397,7.411,34.945,12.996,34.945,12.996
			L1681.957,1447.453z"/>
		<path style="fill:#4A75CB;" d="M1684.208,1395.49l-0.534,11.761l-57.589,5.576c-2.216,0.229-3.284-2.75-1.375-3.972l35.592-22.608
			c2.367-1.45,5.346-1.527,7.714-0.151L1684.208,1395.49z"/>
		<path style="fill:#4A75CB;" d="M1615.436,1310.303l-15.56,3.978c-2.605,0.665-3.798,3.684-2.351,5.95l1.841,2.887
			c1.082,1.692,3.49,1.861,4.797,0.337L1615.436,1310.303z"/>
		<path style="fill:#4A75CB;" d="M1623.543,1309.841l15.556-2.733c1.013-0.179,2.055,0.061,2.887,0.663l6.203,4.479
			c1.161,0.839,0.359,2.67-1.045,2.384L1623.543,1309.841z"/>
		<path style="fill:#AB7041;" d="M1641.856,1413.372l-6.179-1.981c0,0-4.323-14.302-18.938-7.9c0,0-5.932,3.146-3.32,6.868
			c2.613,3.723,2.137,1.762,5.708,7.124s9.223,7.905,13.728,5.88l5.133,0.147L1641.856,1413.372z"/>
		<path style="fill:#2B478B;" d="M1741.447,1294.61c0,0,37.792,60.104-2.465,129.56c-12.566,21.681-107.484,1.073-107.484,1.073
			s-3.699-6.683,6.205-13.724c0,0,63.197-10.697,70.729-12.491c6.684-1.591,2.228-63.011,9.865-80.832
			C1725.936,1300.375,1741.447,1294.61,1741.447,1294.61z"/>
		<path style="fill:#ED985F;" d="M1724.331,1263.181c0,0-8.707,16.114-25.28,20.62c-0.841-6.874-0.841-10.769-0.841-10.769
			l13.289-10.616L1724.331,1263.181z"/>
		<path style="fill:#FFB27D;" d="M1692.15,1272.566c0,0,32.859,5.459,35.945-15.058c3.084-20.515,9.402-33.628-11.447-37.98
			c-20.85-4.354-26.112,2.861-28.809,9.458C1685.146,1235.584,1683.683,1270.617,1692.15,1272.566z"/>
		<path style="fill:#2B478B;" d="M1740.038,1217.071c0.3-0.347,0.986-0.627,2.518-0.712c0,0-1.224-0.777-2.859-0.817
			c-0.321-2.163-1.454-5.991-5.118-6.922c0,0,1.97,1.067,2.227,3.366c-4.244-4.427-13.339-7.649-38.522-5.631
			c-33.188,2.661-22.251,24.242-17.954,26.814s15.112-4.48,23.118-3.835c8.005,0.646,9.527,12.394,12.243,14.005
			c2.716,1.612,1.648-1.238,5.322-2.925c3.674-1.688,4.024,4.497,2.962,8.518c-1.061,4.021,3.989,9.324,3.989,9.324s0,0,5.102-5.581
			c5.102-5.58,9.91-29.216,7.59-34.256C1740.45,1217.976,1740.247,1217.525,1740.038,1217.071z"/>
	</g>
	<path style="fill:#283250;" d="M2797.017,1796H223.114c-1.137,0-2.067-0.931-2.067-2.067v-0.16c0-1.137,0.93-2.067,2.067-2.067
		h2573.903c1.137,0,2.066,0.931,2.066,2.067v0.16C2799.083,1795.069,2798.153,1796,2797.017,1796z"/>
</g>
</svg>
